<?xml version="1.0" standalone="no"?><!DOCTYPE svg PUBLIC "-//W3C//DTD SVG 1.1//EN" "http://www.w3.org/Graphics/SVG/1.1/DTD/svg11.dtd"><svg t="1733324099007" class="icon" viewBox="0 0 1024 1024" version="1.1" xmlns="http://www.w3.org/2000/svg" p-id="2421" xmlns:xlink="http://www.w3.org/1999/xlink" width="200" height="200"><path d="M512 512m-470.54251 0a470.54251 470.54251 0 1 0 941.08502 0 470.54251 470.54251 0 1 0-941.08502 0Z" fill="#FFFDDB" p-id="2422"></path><path d="M512 999.125506C243.396923 999.125506 24.874494 780.603077 24.874494 512 24.874494 243.396923 243.396923 24.874494 512 24.874494 780.603077 24.874494 999.125506 243.396923 999.125506 512c0 268.603077-218.522429 487.125506-487.125506 487.125506z m0-941.08502C261.687968 58.040486 58.040486 261.687968 58.040486 512 58.040486 762.316178 261.687968 965.959514 512 965.959514c250.316178 0 453.959514-203.643336 453.959514-453.959514C965.959514 261.687968 762.316178 58.040486 512 58.040486z" fill="#6E6E96" p-id="2423"></path><path d="M512 512m-259.109312 0a259.109312 259.109312 0 1 0 518.218624 0 259.109312 259.109312 0 1 0-518.218624 0Z" fill="#FF94A4" p-id="2424"></path><path d="M512 795.983806C355.410915 795.983806 228.016194 668.589085 228.016194 512S355.410915 228.016194 512 228.016194 795.983806 355.410915 795.983806 512 668.589085 795.983806 512 795.983806z m0-518.218624C382.843336 277.765182 277.765182 382.843336 277.765182 512S382.843336 746.234818 512 746.234818s234.234818-105.078154 234.234818-234.234818S641.156664 277.765182 512 277.765182z" fill="#6E6E96" p-id="2425"></path><path d="M584.131887 674.351676a16.582996 16.582996 0 0 1-7.632324-31.316988 145.113652 145.113652 0 0 0 69.449587-78.313198 16.582996 16.582996 0 1 1 31.08068 11.579077 178.200874 178.200874 0 0 1-85.286348 96.189668 16.479352 16.479352 0 0 1-7.611595 1.861441z" fill="#FFFFFF" opacity=".42" p-id="2426"></path><path d="M348.242915 530.65587a16.582996 16.582996 0 0 1-16.582996-16.582996c0-98.295709 79.971498-178.267206 178.267207-178.267206a16.582996 16.582996 0 0 1 0 33.165992c-80.00881 0-145.101215 65.092405-145.101215 145.101214a16.582996 16.582996 0 0 1-16.582996 16.582996z" fill="#FFFFFF" opacity=".42" p-id="2427"></path></svg>